<mxfile host="app.diagrams.net" modified="2023-06-21T12:05:34.649Z" agent="Mozilla/5.0 (X11; Linux x86_64; rv:109.0) Gecko/20100101 Firefox/112.0" version="21.5.0" etag="XZUrJRuspp0j0boJanQZ" type="github">
  <diagram name="Страница 1" id="YUF0oeC5wvgHg5BcI3yn">
    <mxGraphModel>
      <root>
        <mxCell id="0" />
        <mxCell id="1" parent="0" />
      </root>
    </mxGraphModel>
  </diagram>
</mxfile>
